<?xml version="1.0" standalone="no"?>
<!DOCTYPE svg PUBLIC "-//W3C//DTD SVG 20010904//EN"
 "http://www.w3.org/TR/2001/REC-SVG-20010904/DTD/svg10.dtd">
<svg version="1.0" xmlns="http://www.w3.org/2000/svg"
 width="793.000000pt" height="783.000000pt" viewBox="0 0 793.000000 783.000000"
 preserveAspectRatio="xMidYMid meet">
<metadata>
Created by potrace 1.16, written by Peter Selinger 2001-2019
</metadata>
<g transform="translate(0.000000,783.000000) scale(0.100000,-0.100000)"
fill="#000000" stroke="none">
<path d="M80 3915 l0 -3825 3880 0 3880 0 0 3825 0 3825 -3880 0 -3880 0 0
-3825z m1550 3640 l0 -175 -770 0 -770 0 0 175 0 175 770 0 770 0 0 -175z
m1550 0 l0 -175 -770 0 -770 0 0 175 0 175 770 0 770 0 0 -175z m1550 0 l0
-175 -770 0 -770 0 0 175 0 175 770 0 770 0 0 -175z m1550 0 l0 -175 -770 0
-770 0 0 175 0 175 770 0 770 0 0 -175z m1550 0 l0 -175 -770 0 -770 0 0 175
0 175 770 0 770 0 0 -175z m-6200 -800 l0 -615 -770 0 -770 0 0 615 0 615 770
0 770 0 0 -615z m1550 0 l0 -615 -770 0 -770 0 0 615 0 615 770 0 770 0 0
-615z m1550 0 l0 -615 -770 0 -770 0 0 615 0 615 770 0 770 0 0 -615z m1550 0
l0 -615 -770 0 -770 0 0 615 0 615 770 0 770 0 0 -615z m1550 0 l0 -615 -770
0 -770 0 0 615 0 615 770 0 770 0 0 -615z m-6200 -1150 l0 -525 -770 0 -770 0
0 525 0 525 770 0 770 0 0 -525z m1550 0 l0 -525 -770 0 -770 0 0 525 0 525
770 0 770 0 0 -525z m1550 0 l0 -525 -770 0 -770 0 0 525 0 525 770 0 770 0 0
-525z m1550 0 l0 -525 -770 0 -770 0 0 525 0 525 770 0 770 0 0 -525z m1550 0
l0 -525 -770 0 -770 0 0 525 0 525 770 0 770 0 0 -525z m-6200 -885 l0 -350
-770 0 -770 0 0 350 0 350 770 0 770 0 0 -350z m1550 0 l0 -350 -770 0 -770 0
0 350 0 350 770 0 770 0 0 -350z m1550 0 l0 -350 -770 0 -770 0 0 350 0 350
770 0 770 0 0 -350z m1550 0 l0 -350 -770 0 -770 0 0 350 0 350 770 0 770 0 0
-350z m1550 0 l0 -350 -770 0 -770 0 0 350 0 350 770 0 770 0 0 -350z m-6200
-625 l0 -265 -770 0 -770 0 0 265 0 265 770 0 770 0 0 -265z m1550 0 l0 -265
-770 0 -770 0 0 265 0 265 770 0 770 0 0 -265z m1550 0 l0 -265 -770 0 -770 0
0 265 0 265 770 0 770 0 0 -265z m1550 0 l0 -265 -770 0 -770 0 0 265 0 265
770 0 770 0 0 -265z m1550 0 l0 -265 -770 0 -770 0 0 265 0 265 770 0 770 0 0
-265z m-6200 -715 l0 -440 -770 0 -770 0 0 440 0 440 770 0 770 0 0 -440z
m1550 0 l0 -440 -770 0 -770 0 0 440 0 440 770 0 770 0 0 -440z m1550 0 l0
-440 -770 0 -770 0 0 440 0 440 770 0 770 0 0 -440z m1550 0 l0 -440 -770 0
-770 0 0 440 0 440 770 0 770 0 0 -440z m1550 0 l0 -440 -770 0 -770 0 0 440
0 440 770 0 770 0 0 -440z m-6200 -1065 l0 -615 -770 0 -770 0 0 615 0 615
770 0 770 0 0 -615z m1550 0 l0 -615 -770 0 -770 0 0 615 0 615 770 0 770 0 0
-615z m1550 0 l0 -615 -770 0 -770 0 0 615 0 615 770 0 770 0 0 -615z m1550 0
l0 -615 -770 0 -770 0 0 615 0 615 770 0 770 0 0 -615z m1550 0 l0 -615 -770
0 -770 0 0 615 0 615 770 0 770 0 0 -615z m-6200 -1065 l0 -440 -770 0 -770 0
0 440 0 440 770 0 770 0 0 -440z m1550 0 l0 -440 -770 0 -770 0 0 440 0 440
770 0 770 0 0 -440z m1550 0 l0 -440 -770 0 -770 0 0 440 0 440 770 0 770 0 0
-440z m1550 0 l0 -440 -770 0 -770 0 0 440 0 440 770 0 770 0 0 -440z m1550 0
l0 -440 -770 0 -770 0 0 440 0 440 770 0 770 0 0 -440z m-6200 -800 l0 -350
-770 0 -770 0 0 350 0 350 770 0 770 0 0 -350z m1550 0 l0 -350 -770 0 -770 0
0 350 0 350 770 0 770 0 0 -350z m1550 0 l0 -350 -770 0 -770 0 0 350 0 350
770 0 770 0 0 -350z m1550 0 l0 -350 -770 0 -770 0 0 350 0 350 770 0 770 0 0
-350z m1550 0 l0 -350 -770 0 -770 0 0 350 0 350 770 0 770 0 0 -350z"/>
</g>
</svg>
